Coordinates
version=1
nRows=60
nColumns=12
inDegrees=yes

Units are S.I. units (second, meters, Newtons, ...)
Angles are in degrees

endheader
time	SC_y	SC_z	SC_x	AC_y	AC_z	AC_x	GH_y	GH_z	GH_yy	EL_x	PS_y
       0.0              -55.43          15.16          31.88          35.18         -7.973          13.27          50.31         -8.046         -110.6          18.91          34.45
   0.04006              -55.43          15.16          31.87          35.18         -7.971          13.27           50.3         -8.044         -110.6          18.92          34.45
   0.08011              -55.43          15.16          31.87          35.19         -7.969          13.26           50.3         -8.043         -110.6          18.93          34.45
    0.1202              -55.43          15.16          31.87          35.19         -7.967          13.26          50.29         -8.041         -110.5          18.94          34.44
    0.1602              -55.43          15.15          31.86           35.2         -7.964          13.25          50.29          -8.04         -110.5          18.95          34.44
    0.2003              -55.43          15.15          31.86           35.2         -7.961          13.25          50.28         -8.038         -110.5          18.96          34.44
    0.2403              -55.43          15.14          31.86          35.21         -7.958          13.24          50.28         -8.036         -110.5          18.97          34.44
    0.2804              -55.43          15.14          31.85          35.21         -7.955          13.23          50.27         -8.034         -110.5          18.98          34.44
    0.3205              -55.43          15.14          31.85          35.22         -7.952          13.23          50.26         -8.032         -110.5          18.99          34.44
    0.3605              -55.43          15.13          31.84          35.22         -7.948          13.22          50.25         -8.029         -110.5          19.01          34.44
    0.4006              -55.43          15.13          31.84          35.23         -7.945          13.21          50.25         -8.027         -110.4          19.02          34.44
    0.4406              -55.43          15.12          31.83          35.24         -7.941           13.2          50.24         -8.024         -110.4          19.04          34.44
    0.4807              -55.43          15.11          31.82          35.24         -7.936          13.19          50.23         -8.021         -110.4          19.06          34.43
    0.5207              -55.43          15.11          31.82          35.25         -7.931          13.18          50.22         -8.018         -110.4          19.08          34.43
    0.5608              -55.42           15.1          31.81          35.26         -7.926          13.17          50.21         -8.015         -110.4           19.1          34.43
    0.6008              -55.42          15.09           31.8          35.27         -7.921          13.16           50.2         -8.011         -110.3          19.12          34.43
    0.6409              -55.42          15.09          31.79          35.28         -7.914          13.15          50.19         -8.007         -110.3          19.15          34.43
     0.681              -55.42          15.08          31.78          35.29         -7.908          13.13          50.17         -8.003         -110.3          19.17          34.43
     0.721              -55.42          15.07          31.77           35.3         -7.901          13.12          50.16         -7.998         -110.2           19.2          34.42
    0.7611              -55.42          15.06          31.76          35.32         -7.893           13.1          50.14         -7.993         -110.2          19.23          34.42
    0.8011              -55.42          15.04          31.75          35.33         -7.884          13.08          50.12         -7.987         -110.2          19.27          34.42
    0.8412              -55.41          15.03          31.73          35.35         -7.874          13.06           50.1         -7.981         -110.1          19.31          34.41
    0.8812              -55.41          15.02          31.72          35.37         -7.864          13.04          50.08         -7.974         -110.1          19.35          34.41
    0.9213              -55.41           15.0           31.7          35.39         -7.852          13.01          50.06         -7.966         -110.0           19.4          34.41
    0.9614              -55.41          14.98          31.68          35.41         -7.839          12.98          50.03         -7.958         -109.9          19.45           34.4
     1.001               -55.4          14.96          31.66          35.43         -7.824          12.95           50.0         -7.948         -109.9          19.51           34.4
     1.041               -55.4          14.94          31.64          35.46         -7.808          12.92          49.97         -7.937         -109.8          19.57          34.39
     1.082               -55.4          14.92          31.61          35.49          -7.79          12.88          49.93         -7.925         -109.7          19.65          34.39
     1.122              -55.39          14.89          31.58          35.52         -7.769          12.83          49.89         -7.912         -109.6          19.73          34.38
     1.162              -55.39          14.86          31.55          35.56         -7.745          12.78          49.84         -7.896         -109.5          19.83          34.37
     1.202              -55.38          14.82          31.51          35.61         -7.719          12.73          49.78         -7.879         -109.4          19.93          34.36
     1.242              -55.38          14.78          31.46          35.66         -7.688          12.66          49.72         -7.859         -109.2          20.06          34.35
     1.282              -55.37          14.73          31.41          35.72         -7.652          12.58          49.65         -7.835         -109.1           20.2          34.34
     1.322              -55.36          14.68          31.35          35.79         -7.611           12.5          49.56         -7.808         -108.9          20.37          34.33
     1.362              -55.35          14.61          31.28          35.87         -7.562          12.39          49.46         -7.776         -108.6          20.56          34.31
     1.402              -55.34          14.53           31.2          35.97         -7.505          12.27          49.35         -7.739         -108.4          20.79          34.29
     1.442              -55.33          14.44           31.1          36.08         -7.438          12.13          49.21         -7.695         -108.1          21.07          34.27
     1.482              -55.31          14.33          30.98          36.22         -7.356          11.95          49.04         -7.641         -107.7          21.39          34.25
     1.522               -55.3           14.2          30.83          36.38         -7.258          11.74          48.84         -7.577         -107.2          21.79          34.21
     1.562              -55.27          14.04          30.66          36.59         -7.138          11.48          48.59         -7.498         -106.6          22.27          34.17
     1.602              -55.24          13.84          30.44          36.84          -6.99          11.17          48.29         -7.401         -105.9          22.87          34.13
     1.642              -55.21          13.59          30.17          37.15         -6.805          10.77          47.91          -7.28         -105.1          23.62          34.07
     1.682              -55.16          13.27          29.83          37.54         -6.572          10.27          47.43         -7.127         -104.0          24.55          33.99
     1.722              -55.11          12.87           29.4          38.04         -6.276          9.639          46.82         -6.933         -102.6          25.75          33.89
     1.762              -55.03          12.36          28.85          38.67         -5.897          8.828          46.04         -6.685         -100.8          27.27          33.77
     1.803              -54.94           11.7          28.14          39.49          -5.41          7.788          45.05         -6.366         -98.52          29.23          33.61
     1.843              -54.82          10.87          27.23          40.54         -4.789          6.459          43.77         -5.959         -95.59          31.73          33.41
     1.883              -54.67          9.811          26.09          41.85         -4.008          4.788          42.17         -5.447         -91.92          34.88          33.15
     1.923              -54.49          8.526           24.7          43.45         -3.056          2.751          40.21         -4.823         -87.44          38.71          32.84
     1.963              -54.27          7.037          23.09          45.31         -1.953         0.3905          37.95           -4.1         -82.25          43.16          32.48
     2.003              -54.04          5.424          21.35          47.32        -0.7586         -2.166           35.5         -3.317         -76.63          47.97          32.09
     2.043              -53.81          3.811          19.61          49.32          0.436         -4.722          33.05         -2.534         -71.01          52.78           31.7
     2.083               -53.6          2.322           18.0          51.18          1.539         -7.082          30.78         -1.811         -65.82          57.22          31.35
     2.123              -53.42          1.037          16.61          52.78          2.491         -9.119          28.83         -1.187         -61.34          61.06          31.03
     2.163              -53.27       -0.01786          15.47          54.09          3.272         -10.79          27.23        -0.6749         -57.66           64.2          30.78
     2.203              -53.15        -0.8565          14.56          55.14          3.893         -12.12          25.95        -0.2678         -54.74           66.7          30.58
     2.243              -53.06         -1.513          13.85          55.96           4.38         -13.16          24.95        0.05094         -52.45          68.66          30.42
     2.283              -52.98         -2.025           13.3          56.59          4.759         -13.97          24.17         0.2993         -50.67          70.19           30.3
     2.323              -52.93         -2.424          12.87          57.09          5.055          -14.6          23.57         0.4934         -49.27          71.38           30.2
     2.363              -52.88         -2.739          12.53          57.48          5.288          -15.1          23.09          0.646         -48.18          72.32          30.12
